# xmcd
#
# Track frame offsets: 
#        150
#        28727
#        47779
#        58789
#        84666
#        123218
#        150970
#        181875
#
# Disc length: 2802 seconds
#
# Revision: 0
# Processed by: cddbd v1.5.2PL0 Copyright (c) Steve Scherf et al.
# Submitted via: ExactAudioCopy v1.0b3
#
DISCID=5d0af008
DTITLE=Roy Buchanan - 1977-06-15 - Shiba Ubinchokin Hall - Tokyo, Japa
DTITLE=n - disc 2
DYEAR=1977
DGENRE=Blues
TTITLE0=Soul Dressing
TTITLE1=Lonely Days, Lonely Nights
TTITLE2=She Can't Say No
TTITLE3=Sunshine Of Your Love
TTITLE4=Minor Blues
TTITLE5=Baby Can't I Change My Mind
TTITLE6=The Messiah Will Come Again
TTITLE7=I'm Evil
EXTD=
EXTT0=
EXTT1=
EXTT2=
EXTT3=
EXTT4=
EXTT5=
EXTT6=
EXTT7=
PLAYORDER=
